<svg width="40" height="42" viewBox="0 0 40 42" fill="none" xmlns="http://www.w3.org/2000/svg">
<g filter="url(#filter0_d_202_48)">
<path d="M7.49996 24.6666C5.79708 24.6666 4.41663 23.2862 4.41663 21.5833C4.41663 19.8804 5.79708 18.5 7.49996 18.5C9.20284 18.5 10.5833 19.8804 10.5833 21.5833C10.5811 23.2853 9.20193 24.6644 7.49996 24.6666ZM7.49996 9.24998C5.79708 9.24998 4.41663 7.86952 4.41663 6.16665C4.41663 4.46377 5.79708 3.08331 7.49996 3.08331C9.20284 3.08331 10.5833 4.46377 10.5833 6.16665C10.5811 7.86862 9.20193 9.24777 7.49996 9.24998ZM22.9166 9.24998C21.2137 9.24998 19.8333 7.86952 19.8333 6.16665C19.8333 4.46377 21.2137 3.08331 22.9166 3.08331C24.6195 3.08331 26 4.46377 26 6.16665C25.9978 7.86862 24.6186 9.24777 22.9166 9.24998ZM22.9166 24.6666C21.2137 24.6666 19.8333 23.2862 19.8333 21.5833C19.8333 19.8804 21.2137 18.5 22.9166 18.5C24.6195 18.5 26 19.8804 26 21.5833C25.9978 23.2853 24.6186 24.6644 22.9166 24.6666Z" fill="#F467B2"/>
<path d="M16.75 33.9166C15.0471 33.9166 13.6666 32.5362 13.6666 30.8333C13.6666 29.1304 15.0471 27.75 16.75 27.75C18.4528 27.75 19.8333 29.1304 19.8333 30.8333C19.8311 32.5353 18.4519 33.9144 16.75 33.9166ZM16.75 18.5C15.0471 18.5 13.6666 17.1195 13.6666 15.4166C13.6666 13.7138 15.0471 12.3333 16.75 12.3333C18.4528 12.3333 19.8333 13.7138 19.8333 15.4166C19.8311 17.1186 18.4519 18.4978 16.75 18.5ZM32.1666 18.5C30.4637 18.5 29.0833 17.1195 29.0833 15.4166C29.0833 13.7138 30.4637 12.3333 32.1666 12.3333C33.8695 12.3333 35.25 13.7138 35.25 15.4166C35.2478 17.1186 33.8686 18.4978 32.1666 18.5ZM32.1666 33.9166C30.4637 33.9166 29.0833 32.5362 29.0833 30.8333C29.0833 29.1304 30.4637 27.75 32.1666 27.75C33.8695 27.75 35.25 29.1304 35.25 30.8333C35.2478 32.5353 33.8686 33.9144 32.1666 33.9166Z" fill="#ED017F"/>
<path d="M20.2623 7.70833C19.6902 6.76016 19.6902 5.57317 20.2623 4.625H10.1542C10.7263 5.57317 10.7263 6.76016 10.1542 7.70833H20.2623ZM7.49992 18.5C8.04286 18.5031 8.57511 18.6512 9.04159 18.9291V8.82092C8.09341 9.39302 6.90642 9.39302 5.95825 8.82092V18.9291C6.42473 18.6512 6.95697 18.5031 7.49992 18.5Z" fill="#FCE0EF"/>
<path d="M32.1666 27.75C32.7095 27.7531 33.2418 27.9012 33.7083 28.1791V18.0709C32.7601 18.643 31.5731 18.643 30.6249 18.0709V28.1791C31.0914 27.9012 31.6236 27.7531 32.1666 27.75ZM16.7499 27.75C17.2929 27.7531 17.8251 27.9012 18.2916 28.1791V18.0709C17.3434 18.643 16.1564 18.643 15.2083 18.0709V28.1791C15.6747 27.9012 16.207 27.7531 16.7499 27.75Z" fill="#F467B2"/>
<path d="M20.2623 20.0417H18.2916V23.125H20.2623C19.6902 22.1768 19.6902 20.9899 20.2623 20.0417ZM15.2083 23.125V20.0417H10.1542C10.7263 20.9899 10.7263 22.1768 10.1542 23.125H15.2083Z" fill="#FCE0EF"/>
<path d="M29.5123 29.2917H19.4042C19.9763 30.2398 19.9763 31.4268 19.4042 32.375H29.5123C28.9402 31.4268 28.9402 30.2398 29.5123 29.2917ZM29.5123 16.9583C28.9402 16.0102 28.9402 14.8232 29.5123 13.875H19.4042C19.9763 14.8232 19.9763 16.0102 19.4042 16.9583H29.5123Z" fill="#F467B2"/>
<path d="M24.4582 13.875V8.82092C23.51 9.39302 22.323 9.39302 21.3749 8.82092V13.875H24.4582ZM21.3749 16.9583V18.9291C22.323 18.357 23.51 18.357 24.4582 18.9291V16.9583H21.3749Z" fill="#FCE0EF"/>
</g>
<defs>
<filter id="filter0_d_202_48" x="-2.66675" y="0" width="45" height="45" filterUnits="userSpaceOnUse" color-interpolation-filters="sRGB">
<feFlood flood-opacity="0" result="BackgroundImageFix"/>
<feColorMatrix in="SourceAlpha" type="matrix" values="0 0 0 0 0 0 0 0 0 0 0 0 0 0 0 0 0 0 127 0" result="hardAlpha"/>
<feOffset dy="4"/>
<feGaussianBlur stdDeviation="2"/>
<feComposite in2="hardAlpha" operator="out"/>
<feColorMatrix type="matrix" values="0 0 0 0 0 0 0 0 0 0 0 0 0 0 0 0 0 0 0.25 0"/>
<feBlend mode="normal" in2="BackgroundImageFix" result="effect1_dropShadow_202_48"/>
<feBlend mode="normal" in="SourceGraphic" in2="effect1_dropShadow_202_48" result="shape"/>
</filter>
</defs>
</svg>
